<svg xmlns="http://www.w3.org/2000/svg" xmlns:xlink="http://www.w3.org/1999/xlink" width="360" zoomAndPan="magnify" viewBox="0 0 270 135.000003" height="180" preserveAspectRatio="xMidYMid meet" version="1.0"><defs><g/><clipPath id="b7a1dc3cdd"><path d="M 96 44.648438 L 111.609375 44.648438 L 111.609375 60.28125 L 96 60.28125 Z M 96 44.648438 " clip-rule="nonzero"/></clipPath><clipPath id="45f4940f25"><path d="M 191.148438 44.648438 L 206.78125 44.648438 L 206.78125 60.28125 L 191.148438 60.28125 Z M 191.148438 44.648438 " clip-rule="nonzero"/></clipPath></defs><g fill="#6f42c1" fill-opacity="1"><g transform="translate(2.964897, 90.542115)"><g><path d="M 19.796875 -5.375 L 1.671875 -12.046875 L 1.671875 -15.96875 L 19.796875 -23.328125 L 19.796875 -18.765625 L 8.734375 -14.25 L 19.796875 -9.984375 Z M 19.796875 -5.375 "/></g></g></g><g fill="#6f42c1" fill-opacity="1"><g transform="translate(24.491014, 90.542115)"><g><path d="M 8.734375 0 C 7.015625 0 5.640625 -0.25 4.609375 -0.75 C 3.578125 -1.25 2.800781 -2.046875 2.28125 -3.140625 C 2.050781 -3.628906 1.863281 -4.125 1.71875 -4.625 C 1.570312 -5.125 1.457031 -5.695312 1.375 -6.34375 C 1.289062 -6.988281 1.226562 -7.734375 1.1875 -8.578125 C 1.144531 -9.429688 1.125 -10.460938 1.125 -11.671875 L 1.125 -17.046875 C 1.125 -18.253906 1.144531 -19.28125 1.1875 -20.125 C 1.226562 -20.96875 1.289062 -21.710938 1.375 -22.359375 C 1.457031 -23.003906 1.570312 -23.578125 1.71875 -24.078125 C 1.863281 -24.585938 2.050781 -25.082031 2.28125 -25.5625 C 2.800781 -26.65625 3.578125 -27.453125 4.609375 -27.953125 C 5.640625 -28.460938 7.015625 -28.71875 8.734375 -28.71875 L 12.1875 -28.71875 C 13.90625 -28.71875 15.28125 -28.460938 16.3125 -27.953125 C 17.34375 -27.453125 18.117188 -26.65625 18.640625 -25.5625 C 18.867188 -25.082031 19.054688 -24.585938 19.203125 -24.078125 C 19.347656 -23.578125 19.460938 -23.003906 19.546875 -22.359375 C 19.628906 -21.710938 19.691406 -20.96875 19.734375 -20.125 C 19.773438 -19.28125 19.796875 -18.253906 19.796875 -17.046875 L 19.796875 -11.671875 C 19.796875 -10.460938 19.773438 -9.429688 19.734375 -8.578125 C 19.691406 -7.734375 19.628906 -6.988281 19.546875 -6.34375 C 19.460938 -5.695312 19.347656 -5.125 19.203125 -4.625 C 19.054688 -4.125 18.867188 -3.628906 18.640625 -3.140625 C 18.117188 -2.046875 17.34375 -1.25 16.3125 -0.75 C 15.28125 -0.25 13.90625 0 12.1875 0 Z M 12.09375 -20.484375 C 12.09375 -21.179688 11.941406 -21.734375 11.640625 -22.140625 C 11.335938 -22.554688 10.941406 -22.765625 10.453125 -22.765625 C 9.972656 -22.765625 9.582031 -22.554688 9.28125 -22.140625 C 8.976562 -21.734375 8.828125 -21.179688 8.828125 -20.484375 L 8.828125 -8.140625 C 8.828125 -7.421875 8.976562 -6.859375 9.28125 -6.453125 C 9.582031 -6.054688 9.972656 -5.859375 10.453125 -5.859375 C 10.941406 -5.859375 11.335938 -6.054688 11.640625 -6.453125 C 11.941406 -6.859375 12.09375 -7.421875 12.09375 -8.140625 Z M 12.09375 -20.484375 "/></g></g></g><g fill="#6f42c1" fill-opacity="1"><g transform="translate(45.371352, 90.542115)"><g><path d="M 1.375 -28.71875 L 9.078125 -28.71875 L 9.078125 -10.328125 C 9.078125 -9.117188 9.1875 -8.304688 9.40625 -7.890625 C 9.625 -7.484375 10.03125 -7.28125 10.625 -7.28125 C 11.257812 -7.28125 11.691406 -7.492188 11.921875 -7.921875 C 12.148438 -8.347656 12.265625 -9.132812 12.265625 -10.28125 L 12.265625 -28.71875 L 19.96875 -28.71875 L 19.96875 -10.28125 C 19.96875 -9.132812 20.082031 -8.347656 20.3125 -7.921875 C 20.539062 -7.492188 20.957031 -7.28125 21.5625 -7.28125 C 22.164062 -7.28125 22.570312 -7.484375 22.78125 -7.890625 C 23 -8.304688 23.109375 -9.117188 23.109375 -10.328125 L 23.109375 -28.71875 L 30.828125 -28.71875 L 30.828125 -7.875 C 30.828125 -6.84375 30.816406 -5.988281 30.796875 -5.3125 C 30.785156 -4.644531 30.75 -4.085938 30.6875 -3.640625 C 30.632812 -3.191406 30.554688 -2.820312 30.453125 -2.53125 C 30.359375 -2.25 30.238281 -1.960938 30.09375 -1.671875 C 29.914062 -1.328125 29.679688 -1.046875 29.390625 -0.828125 C 29.109375 -0.617188 28.726562 -0.445312 28.25 -0.3125 C 27.78125 -0.1875 27.1875 -0.101562 26.46875 -0.0625 C 25.75 -0.0195312 24.875 0 23.84375 0 C 22.300781 0 21.054688 -0.0351562 20.109375 -0.109375 C 19.160156 -0.179688 18.410156 -0.335938 17.859375 -0.578125 C 17.316406 -0.828125 16.921875 -1.171875 16.671875 -1.609375 C 16.429688 -2.054688 16.238281 -2.65625 16.09375 -3.40625 C 15.957031 -2.65625 15.765625 -2.054688 15.515625 -1.609375 C 15.273438 -1.171875 14.878906 -0.828125 14.328125 -0.578125 C 13.785156 -0.335938 13.039062 -0.179688 12.09375 -0.109375 C 11.144531 -0.0351562 9.882812 0 8.3125 0 C 7.28125 0 6.410156 -0.0195312 5.703125 -0.0625 C 5.003906 -0.101562 4.414062 -0.1875 3.9375 -0.3125 C 3.46875 -0.445312 3.085938 -0.617188 2.796875 -0.828125 C 2.515625 -1.046875 2.285156 -1.328125 2.109375 -1.671875 C 1.960938 -1.960938 1.835938 -2.25 1.734375 -2.53125 C 1.640625 -2.820312 1.5625 -3.191406 1.5 -3.640625 C 1.445312 -4.085938 1.410156 -4.644531 1.390625 -5.3125 C 1.378906 -5.988281 1.375 -6.84375 1.375 -7.875 Z M 1.375 -28.71875 "/></g></g></g><g fill="#6f42c1" fill-opacity="1"><g transform="translate(77.617473, 90.542115)"><g><path d="M 1.375 -22.859375 C 1.375 -24.117188 1.476562 -25.128906 1.6875 -25.890625 C 1.90625 -26.648438 2.25 -27.234375 2.71875 -27.640625 C 3.175781 -28.035156 3.882812 -28.3125 4.84375 -28.46875 C 5.800781 -28.632812 7.226562 -28.71875 9.125 -28.71875 L 12.265625 -28.71875 C 14.160156 -28.71875 15.585938 -28.632812 16.546875 -28.46875 C 17.515625 -28.3125 18.226562 -28.035156 18.6875 -27.640625 C 19.144531 -27.234375 19.476562 -26.648438 19.6875 -25.890625 C 19.90625 -25.128906 20.015625 -24.117188 20.015625 -22.859375 L 20.015625 0 L 12.3125 0 L 12.3125 -6.0625 L 9.078125 -6.0625 L 9.078125 0 L 1.375 0 Z M 12.3125 -12.4375 L 12.3125 -20.015625 C 12.3125 -21.796875 11.765625 -22.6875 10.671875 -22.6875 C 9.609375 -22.6875 9.078125 -21.796875 9.078125 -20.015625 L 9.078125 -12.4375 Z M 12.3125 -12.4375 "/></g></g></g><g fill="#6f42c1" fill-opacity="1"><g transform="translate(99.057481, 90.542115)"><g><path d="M 1.375 -28.71875 L 9.078125 -28.71875 L 9.078125 0 L 1.375 0 Z M 1.375 -28.71875 "/></g></g></g><g fill="#6f42c1" fill-opacity="1"><g transform="translate(109.519171, 90.542115)"><g><path d="M 0.734375 -6.234375 L 7.921875 -6.234375 L 7.921875 -11.234375 L 6.71875 -11.234375 C 5.226562 -11.234375 4.109375 -11.363281 3.359375 -11.625 C 2.609375 -11.882812 2.035156 -12.359375 1.640625 -13.046875 C 1.429688 -13.359375 1.265625 -13.6875 1.140625 -14.03125 C 1.015625 -14.375 0.90625 -14.773438 0.8125 -15.234375 C 0.726562 -15.691406 0.671875 -16.238281 0.640625 -16.875 C 0.617188 -17.507812 0.609375 -18.253906 0.609375 -19.109375 L 0.609375 -20.875 C 0.609375 -24.4375 1.195312 -26.71875 2.375 -27.71875 C 2.625 -27.925781 2.882812 -28.097656 3.15625 -28.234375 C 3.4375 -28.378906 3.789062 -28.476562 4.21875 -28.53125 C 4.644531 -28.59375 5.195312 -28.640625 5.875 -28.671875 C 6.550781 -28.703125 7.40625 -28.71875 8.4375 -28.71875 L 15.0625 -28.71875 L 15.0625 -22.46875 L 8.3125 -22.46875 L 8.3125 -17.484375 L 9.6875 -17.484375 C 10.914062 -17.484375 11.929688 -17.375 12.734375 -17.15625 C 13.546875 -16.9375 14.179688 -16.539062 14.640625 -15.96875 C 15.097656 -15.394531 15.410156 -14.613281 15.578125 -13.625 C 15.753906 -12.632812 15.84375 -11.378906 15.84375 -9.859375 L 15.84375 -8.09375 C 15.84375 -6.375 15.738281 -4.984375 15.53125 -3.921875 C 15.332031 -2.859375 15.019531 -2.050781 14.59375 -1.5 C 14.1875 -1.019531 13.734375 -0.664062 13.234375 -0.4375 C 12.734375 -0.207031 12.050781 -0.0625 11.1875 0 L 0.734375 0 Z M 0.734375 -6.234375 "/></g></g></g><g fill="#6f42c1" fill-opacity="1"><g transform="translate(125.922078, 90.542115)"><g/></g></g><g fill="#6f42c1" fill-opacity="1"><g transform="translate(136.125455, 90.542115)"><g><path d="M 1.375 -28.71875 L 13.125 -28.71875 C 14.101562 -28.71875 14.878906 -28.707031 15.453125 -28.6875 C 16.023438 -28.675781 16.484375 -28.648438 16.828125 -28.609375 C 17.171875 -28.566406 17.441406 -28.5 17.640625 -28.40625 C 17.847656 -28.320312 18.066406 -28.207031 18.296875 -28.0625 C 19.441406 -27.320312 20.015625 -25.6875 20.015625 -23.15625 L 20.015625 -21.3125 C 20.015625 -20.59375 20.003906 -19.988281 19.984375 -19.5 C 19.972656 -19.007812 19.9375 -18.59375 19.875 -18.25 C 19.820312 -17.90625 19.742188 -17.601562 19.640625 -17.34375 C 19.546875 -17.082031 19.410156 -16.828125 19.234375 -16.578125 C 18.890625 -16.003906 18.46875 -15.578125 17.96875 -15.296875 C 17.46875 -15.023438 16.742188 -14.832031 15.796875 -14.71875 C 16.660156 -14.457031 17.363281 -14.191406 17.90625 -13.921875 C 18.445312 -13.648438 18.875 -13.304688 19.1875 -12.890625 C 19.507812 -12.472656 19.726562 -11.976562 19.84375 -11.40625 C 19.957031 -10.832031 20.015625 -10.113281 20.015625 -9.25 L 20.015625 -4.828125 C 20.015625 -3.078125 20.21875 -1.46875 20.625 0 L 12.921875 0 C 12.679688 -0.75 12.519531 -1.46875 12.4375 -2.15625 C 12.351562 -2.84375 12.3125 -3.734375 12.3125 -4.828125 L 12.3125 -8.65625 C 12.3125 -9.570312 12.140625 -10.226562 11.796875 -10.625 C 11.453125 -11.03125 10.878906 -11.234375 10.078125 -11.234375 L 9.078125 -11.234375 L 9.078125 0 L 1.375 0 Z M 10.15625 -17.484375 C 11.050781 -17.484375 11.640625 -17.640625 11.921875 -17.953125 C 12.210938 -18.265625 12.359375 -18.925781 12.359375 -19.9375 C 12.359375 -20.875 12.195312 -21.53125 11.875 -21.90625 C 11.5625 -22.28125 10.988281 -22.46875 10.15625 -22.46875 L 9.078125 -22.46875 L 9.078125 -17.484375 Z M 10.15625 -17.484375 "/></g></g></g><g fill="#6f42c1" fill-opacity="1"><g transform="translate(157.52242, 90.542115)"><g><path d="M 1.375 -22.859375 C 1.375 -24.117188 1.476562 -25.128906 1.6875 -25.890625 C 1.90625 -26.648438 2.25 -27.234375 2.71875 -27.640625 C 3.175781 -28.035156 3.882812 -28.3125 4.84375 -28.46875 C 5.800781 -28.632812 7.226562 -28.71875 9.125 -28.71875 L 12.265625 -28.71875 C 14.160156 -28.71875 15.585938 -28.632812 16.546875 -28.46875 C 17.515625 -28.3125 18.226562 -28.035156 18.6875 -27.640625 C 19.144531 -27.234375 19.476562 -26.648438 19.6875 -25.890625 C 19.90625 -25.128906 20.015625 -24.117188 20.015625 -22.859375 L 20.015625 0 L 12.3125 0 L 12.3125 -6.0625 L 9.078125 -6.0625 L 9.078125 0 L 1.375 0 Z M 12.3125 -12.4375 L 12.3125 -20.015625 C 12.3125 -21.796875 11.765625 -22.6875 10.671875 -22.6875 C 9.609375 -22.6875 9.078125 -21.796875 9.078125 -20.015625 L 9.078125 -12.4375 Z M 12.3125 -12.4375 "/></g></g></g><g fill="#6f42c1" fill-opacity="1"><g transform="translate(178.962428, 90.542115)"><g><path d="M 1.375 -28.71875 L 13.953125 -28.71875 L 13.953125 -22.46875 L 9.078125 -22.46875 L 9.078125 -17.484375 L 13.953125 -17.484375 L 13.953125 -11.234375 L 9.078125 -11.234375 L 9.078125 0 L 1.375 0 Z M 1.375 -28.71875 "/></g></g></g><g fill="#6f42c1" fill-opacity="1"><g transform="translate(194.030701, 90.542115)"><g><path d="M 1.375 -28.71875 L 9.078125 -28.71875 L 9.078125 0 L 1.375 0 Z M 1.375 -28.71875 "/></g></g></g><g fill="#6f42c1" fill-opacity="1"><g transform="translate(204.492391, 90.542115)"><g><path d="M 15.203125 6.890625 C 14.273438 6.890625 13.609375 6.832031 13.203125 6.71875 C 12.804688 6.601562 12.492188 6.34375 12.265625 5.9375 C 12.117188 5.707031 12.03125 5.457031 12 5.1875 C 11.976562 4.914062 11.96875 4.363281 11.96875 3.53125 L 11.96875 0 L 8.90625 0 C 7.363281 0 6.082031 -0.175781 5.0625 -0.53125 C 4.039062 -0.894531 3.242188 -1.535156 2.671875 -2.453125 C 2.097656 -3.367188 1.695312 -4.628906 1.46875 -6.234375 C 1.238281 -7.847656 1.125 -9.890625 1.125 -12.359375 L 1.125 -17.515625 C 1.125 -19.609375 1.25 -21.375 1.5 -22.8125 C 1.757812 -24.25 2.191406 -25.40625 2.796875 -26.28125 C 3.398438 -27.15625 4.203125 -27.78125 5.203125 -28.15625 C 6.210938 -28.53125 7.445312 -28.71875 8.90625 -28.71875 L 12.1875 -28.71875 C 13.90625 -28.71875 15.285156 -28.460938 16.328125 -27.953125 C 17.378906 -27.453125 18.148438 -26.65625 18.640625 -25.5625 C 18.867188 -25.082031 19.054688 -24.585938 19.203125 -24.078125 C 19.347656 -23.578125 19.460938 -23.003906 19.546875 -22.359375 C 19.628906 -21.710938 19.691406 -20.96875 19.734375 -20.125 C 19.773438 -19.28125 19.796875 -18.253906 19.796875 -17.046875 L 19.796875 -10.25 C 19.796875 -7.570312 19.53125 -5.46875 19 -3.9375 C 18.46875 -2.40625 17.644531 -1.304688 16.53125 -0.640625 L 16.53125 0.984375 C 16.53125 1.816406 16.945312 2.234375 17.78125 2.234375 L 19.796875 2.234375 L 19.796875 6.890625 Z M 12.09375 -20.484375 C 12.09375 -22.003906 11.5625 -22.765625 10.5 -22.765625 C 9.988281 -22.765625 9.582031 -22.554688 9.28125 -22.140625 C 8.976562 -21.734375 8.828125 -21.179688 8.828125 -20.484375 L 8.828125 -8.140625 C 8.828125 -7.421875 8.976562 -6.859375 9.28125 -6.453125 C 9.582031 -6.054688 9.988281 -5.859375 10.5 -5.859375 C 11.5625 -5.859375 12.09375 -6.617188 12.09375 -8.140625 Z M 12.09375 -20.484375 "/></g></g></g><g fill="#6f42c1" fill-opacity="1"><g transform="translate(225.372741, 90.542115)"><g><path d="M 7.921875 -32.109375 L 13.46875 -32.109375 L 7.234375 3.78125 L 1.671875 3.78125 Z M 7.921875 -32.109375 "/></g></g></g><g fill="#6f42c1" fill-opacity="1"><g transform="translate(241.129846, 90.542115)"><g><path d="M 1.640625 -9.984375 L 12.703125 -14.25 L 1.640625 -18.765625 L 1.640625 -23.328125 L 19.765625 -15.96875 L 19.765625 -12.046875 L 1.640625 -5.375 Z M 1.640625 -9.984375 "/></g></g></g><g clip-path="url(#b7a1dc3cdd)"><path fill="#6f42c1" d="M 103.636719 44.652344 C 102.976562 44.675781 102.007812 44.894531 101.25 45.203125 C 100.007812 45.707031 98.816406 46.667969 98.023438 47.800781 C 97.671875 48.304688 97.199219 49.089844 97.023438 49.460938 C 96.574219 50.414062 96.226562 51.773438 96.09375 53.097656 C 95.976562 54.285156 96.300781 55.867188 96.890625 56.988281 C 97.605469 58.34375 98.222656 58.90625 99.589844 59.449219 C 100.5 59.8125 102.125 60.175781 103.21875 60.269531 C 103.773438 60.3125 103.90625 60.3125 104.511719 60.269531 C 105.15625 60.21875 105.679688 60.117188 106.347656 59.917969 C 107.628906 59.53125 108.441406 59.074219 109.316406 58.25 C 109.851562 57.746094 110.390625 56.996094 110.761719 56.234375 C 111.046875 55.660156 111.414062 54.582031 111.554688 53.910156 C 111.652344 53.453125 111.664062 53.308594 111.664062 52.539062 C 111.667969 51.785156 111.65625 51.621094 111.570312 51.226562 C 111.367188 50.269531 111.003906 49.351562 110.570312 48.703125 C 110.195312 48.140625 109.542969 47.296875 109.25 46.988281 C 108.554688 46.253906 107.332031 45.46875 106.429688 45.171875 C 105.9375 45.011719 104.332031 44.683594 103.894531 44.65625 C 103.816406 44.652344 103.730469 44.652344 103.636719 44.652344 Z M 103.636719 44.652344 " fill-opacity="1" fill-rule="nonzero"/></g><g clip-path="url(#45f4940f25)"><path fill="#6f42c1" d="M 198.808594 44.652344 C 198.152344 44.675781 197.179688 44.894531 196.425781 45.203125 C 195.183594 45.707031 193.988281 46.667969 193.195312 47.800781 C 192.84375 48.304688 192.371094 49.089844 192.195312 49.460938 C 191.746094 50.414062 191.402344 51.773438 191.269531 53.097656 C 191.148438 54.285156 191.472656 55.867188 192.0625 56.988281 C 192.777344 58.34375 193.394531 58.90625 194.761719 59.449219 C 195.671875 59.8125 197.300781 60.175781 198.394531 60.269531 C 198.945312 60.3125 199.082031 60.3125 199.683594 60.269531 C 200.332031 60.21875 200.851562 60.117188 201.519531 59.917969 C 202.800781 59.53125 203.613281 59.074219 204.488281 58.25 C 205.027344 57.746094 205.5625 56.996094 205.9375 56.234375 C 206.21875 55.660156 206.585938 54.582031 206.726562 53.910156 C 206.824219 53.453125 206.835938 53.308594 206.839844 52.539062 C 206.839844 51.785156 206.828125 51.621094 206.746094 51.226562 C 206.542969 50.269531 206.175781 49.351562 205.742188 48.703125 C 205.367188 48.140625 204.71875 47.296875 204.425781 46.988281 C 203.726562 46.253906 202.507812 45.46875 201.601562 45.171875 C 201.109375 45.011719 199.507812 44.683594 199.070312 44.65625 C 198.988281 44.652344 198.902344 44.652344 198.808594 44.652344 Z M 198.808594 44.652344 " fill-opacity="1" fill-rule="nonzero"/></g></svg>