<svg xmlns="http://www.w3.org/2000/svg" xmlns:xlink="http://www.w3.org/1999/xlink" width="120" zoomAndPan="magnify" viewBox="0 0 90 37.5" height="50" preserveAspectRatio="xMidYMid meet" version="1.0"><defs><g/><clipPath id="053f9c8373"><path d="M 64.375 7.738281 L 69.554688 7.738281 L 69.554688 12.917969 L 64.375 12.917969 Z M 64.375 7.738281 " clip-rule="nonzero"/></clipPath><clipPath id="cf1f54f32d"><path d="M 33.140625 7.738281 L 38.320312 7.738281 L 38.320312 12.917969 L 33.140625 12.917969 Z M 33.140625 7.738281 " clip-rule="nonzero"/></clipPath></defs><g clip-path="url(#053f9c8373)"><path fill="#6f42c1" d="M 66.871094 7.742188 C 66.65625 7.75 66.339844 7.820312 66.09375 7.921875 C 65.6875 8.085938 65.300781 8.398438 65.042969 8.769531 C 64.925781 8.933594 64.773438 9.1875 64.714844 9.308594 C 64.570312 9.621094 64.457031 10.0625 64.414062 10.496094 C 64.375 10.882812 64.480469 11.398438 64.671875 11.761719 C 64.90625 12.203125 65.105469 12.386719 65.550781 12.5625 C 65.847656 12.679688 66.378906 12.800781 66.734375 12.828125 C 66.914062 12.84375 66.957031 12.84375 67.15625 12.828125 C 67.367188 12.8125 67.535156 12.78125 67.753906 12.714844 C 68.171875 12.589844 68.433594 12.441406 68.71875 12.171875 C 68.894531 12.007812 69.070312 11.765625 69.191406 11.515625 C 69.285156 11.328125 69.402344 10.976562 69.449219 10.757812 C 69.480469 10.609375 69.484375 10.5625 69.484375 10.3125 C 69.484375 10.066406 69.480469 10.011719 69.453125 9.882812 C 69.390625 9.574219 69.269531 9.273438 69.128906 9.0625 C 69.007812 8.878906 68.792969 8.605469 68.699219 8.503906 C 68.472656 8.265625 68.074219 8.007812 67.78125 7.914062 C 67.621094 7.859375 67.097656 7.753906 66.953125 7.746094 C 66.929688 7.742188 66.898438 7.742188 66.871094 7.742188 Z M 66.871094 7.742188 " fill-opacity="1" fill-rule="nonzero"/></g><g fill="#6f42c1" fill-opacity="1"><g transform="translate(2.233658, 22.938159)"><g><path d="M 6.53125 -1.78125 L 0.546875 -3.96875 L 0.546875 -5.265625 L 6.53125 -7.6875 L 6.53125 -6.1875 L 2.875 -4.703125 L 6.53125 -3.296875 Z M 6.53125 -1.78125 "/></g></g></g><g fill="#6f42c1" fill-opacity="1"><g transform="translate(9.32272, 22.938159)"><g><path d="M 2.875 0 C 2.3125 0 1.859375 -0.0820312 1.515625 -0.25 C 1.171875 -0.414062 0.914062 -0.675781 0.75 -1.03125 C 0.675781 -1.195312 0.613281 -1.363281 0.5625 -1.53125 C 0.519531 -1.695312 0.484375 -1.882812 0.453125 -2.09375 C 0.421875 -2.300781 0.398438 -2.546875 0.390625 -2.828125 C 0.378906 -3.109375 0.375 -3.445312 0.375 -3.84375 L 0.375 -5.625 C 0.375 -6.019531 0.378906 -6.351562 0.390625 -6.625 C 0.398438 -6.90625 0.421875 -7.148438 0.453125 -7.359375 C 0.484375 -7.578125 0.519531 -7.769531 0.5625 -7.9375 C 0.613281 -8.101562 0.675781 -8.265625 0.75 -8.421875 C 0.914062 -8.785156 1.171875 -9.050781 1.515625 -9.21875 C 1.859375 -9.382812 2.3125 -9.46875 2.875 -9.46875 L 4.015625 -9.46875 C 4.578125 -9.46875 5.03125 -9.382812 5.375 -9.21875 C 5.71875 -9.050781 5.972656 -8.785156 6.140625 -8.421875 C 6.210938 -8.265625 6.273438 -8.101562 6.328125 -7.9375 C 6.378906 -7.769531 6.414062 -7.578125 6.4375 -7.359375 C 6.46875 -7.148438 6.488281 -6.90625 6.5 -6.625 C 6.519531 -6.351562 6.53125 -6.019531 6.53125 -5.625 L 6.53125 -3.84375 C 6.53125 -3.445312 6.519531 -3.109375 6.5 -2.828125 C 6.488281 -2.546875 6.46875 -2.300781 6.4375 -2.09375 C 6.414062 -1.882812 6.378906 -1.695312 6.328125 -1.53125 C 6.273438 -1.363281 6.210938 -1.195312 6.140625 -1.03125 C 5.972656 -0.675781 5.71875 -0.414062 5.375 -0.25 C 5.03125 -0.0820312 4.578125 0 4.015625 0 Z M 3.984375 -6.75 C 3.984375 -6.976562 3.929688 -7.160156 3.828125 -7.296875 C 3.734375 -7.429688 3.609375 -7.5 3.453125 -7.5 C 3.285156 -7.5 3.148438 -7.429688 3.046875 -7.296875 C 2.953125 -7.160156 2.90625 -6.976562 2.90625 -6.75 L 2.90625 -2.6875 C 2.90625 -2.445312 2.953125 -2.257812 3.046875 -2.125 C 3.148438 -1.988281 3.285156 -1.921875 3.453125 -1.921875 C 3.609375 -1.921875 3.734375 -1.988281 3.828125 -2.125 C 3.929688 -2.257812 3.984375 -2.445312 3.984375 -2.6875 Z M 3.984375 -6.75 "/></g></g></g><g fill="#6f42c1" fill-opacity="1"><g transform="translate(16.199113, 22.938159)"><g><path d="M 0.453125 -9.46875 L 3 -9.46875 L 3 -3.40625 C 3 -3.007812 3.03125 -2.738281 3.09375 -2.59375 C 3.164062 -2.457031 3.300781 -2.390625 3.5 -2.390625 C 3.707031 -2.390625 3.847656 -2.460938 3.921875 -2.609375 C 4.003906 -2.753906 4.046875 -3.015625 4.046875 -3.390625 L 4.046875 -9.46875 L 6.578125 -9.46875 L 6.578125 -3.390625 C 6.578125 -3.015625 6.613281 -2.753906 6.6875 -2.609375 C 6.769531 -2.460938 6.910156 -2.390625 7.109375 -2.390625 C 7.304688 -2.390625 7.441406 -2.457031 7.515625 -2.59375 C 7.585938 -2.738281 7.625 -3.007812 7.625 -3.40625 L 7.625 -9.46875 L 10.15625 -9.46875 L 10.15625 -2.59375 C 10.15625 -2.25 10.148438 -1.96875 10.140625 -1.75 C 10.140625 -1.53125 10.128906 -1.347656 10.109375 -1.203125 C 10.097656 -1.054688 10.070312 -0.929688 10.03125 -0.828125 C 10 -0.734375 9.960938 -0.640625 9.921875 -0.546875 C 9.859375 -0.441406 9.78125 -0.351562 9.6875 -0.28125 C 9.59375 -0.207031 9.46875 -0.148438 9.3125 -0.109375 C 9.15625 -0.0664062 8.957031 -0.0351562 8.71875 -0.015625 C 8.488281 -0.00390625 8.203125 0 7.859375 0 C 7.347656 0 6.9375 -0.0078125 6.625 -0.03125 C 6.3125 -0.0625 6.066406 -0.113281 5.890625 -0.1875 C 5.710938 -0.269531 5.582031 -0.382812 5.5 -0.53125 C 5.414062 -0.675781 5.351562 -0.875 5.3125 -1.125 C 5.257812 -0.875 5.191406 -0.675781 5.109375 -0.53125 C 5.035156 -0.382812 4.90625 -0.269531 4.71875 -0.1875 C 4.539062 -0.113281 4.296875 -0.0625 3.984375 -0.03125 C 3.671875 -0.0078125 3.253906 0 2.734375 0 C 2.398438 0 2.113281 -0.00390625 1.875 -0.015625 C 1.644531 -0.0351562 1.453125 -0.0664062 1.296875 -0.109375 C 1.140625 -0.148438 1.015625 -0.207031 0.921875 -0.28125 C 0.828125 -0.351562 0.75 -0.441406 0.6875 -0.546875 C 0.644531 -0.640625 0.609375 -0.734375 0.578125 -0.828125 C 0.546875 -0.929688 0.519531 -1.054688 0.5 -1.203125 C 0.476562 -1.347656 0.460938 -1.53125 0.453125 -1.75 C 0.453125 -1.96875 0.453125 -2.25 0.453125 -2.59375 Z M 0.453125 -9.46875 "/></g></g></g><g fill="#6f42c1" fill-opacity="1"><g transform="translate(26.818526, 22.938159)"><g><path d="M 0.453125 -7.53125 C 0.453125 -7.945312 0.488281 -8.28125 0.5625 -8.53125 C 0.632812 -8.78125 0.742188 -8.972656 0.890625 -9.109375 C 1.046875 -9.242188 1.28125 -9.335938 1.59375 -9.390625 C 1.914062 -9.441406 2.382812 -9.46875 3 -9.46875 L 4.046875 -9.46875 C 4.671875 -9.46875 5.140625 -9.441406 5.453125 -9.390625 C 5.773438 -9.335938 6.007812 -9.242188 6.15625 -9.109375 C 6.3125 -8.972656 6.421875 -8.78125 6.484375 -8.53125 C 6.554688 -8.28125 6.59375 -7.945312 6.59375 -7.53125 L 6.59375 0 L 4.0625 0 L 4.0625 -2 L 3 -2 L 3 0 L 0.453125 0 Z M 4.0625 -4.09375 L 4.0625 -6.59375 C 4.0625 -7.1875 3.878906 -7.484375 3.515625 -7.484375 C 3.171875 -7.484375 3 -7.1875 3 -6.59375 L 3 -4.09375 Z M 4.0625 -4.09375 "/></g></g></g><g fill="#6f42c1" fill-opacity="1"><g transform="translate(33.879229, 22.938159)"><g><path d="M 0.453125 -9.46875 L 3 -9.46875 L 3 0 L 0.453125 0 Z M 0.453125 -9.46875 "/></g></g></g><g fill="#6f42c1" fill-opacity="1"><g transform="translate(37.324518, 22.938159)"><g><path d="M 0.234375 -2.0625 L 2.609375 -2.0625 L 2.609375 -3.703125 L 2.21875 -3.703125 C 1.71875 -3.703125 1.34375 -3.742188 1.09375 -3.828125 C 0.851562 -3.910156 0.671875 -4.066406 0.546875 -4.296875 C 0.472656 -4.398438 0.414062 -4.507812 0.375 -4.625 C 0.332031 -4.738281 0.296875 -4.867188 0.265625 -5.015625 C 0.242188 -5.171875 0.226562 -5.351562 0.21875 -5.5625 C 0.207031 -5.769531 0.203125 -6.015625 0.203125 -6.296875 L 0.203125 -6.875 C 0.203125 -8.050781 0.394531 -8.804688 0.78125 -9.140625 C 0.863281 -9.203125 0.945312 -9.253906 1.03125 -9.296875 C 1.125 -9.347656 1.242188 -9.382812 1.390625 -9.40625 C 1.535156 -9.425781 1.71875 -9.441406 1.9375 -9.453125 C 2.15625 -9.460938 2.4375 -9.46875 2.78125 -9.46875 L 4.96875 -9.46875 L 4.96875 -7.40625 L 2.734375 -7.40625 L 2.734375 -5.765625 L 3.1875 -5.765625 C 3.59375 -5.765625 3.925781 -5.726562 4.1875 -5.65625 C 4.457031 -5.582031 4.664062 -5.453125 4.8125 -5.265625 C 4.96875 -5.078125 5.070312 -4.816406 5.125 -4.484375 C 5.1875 -4.160156 5.21875 -3.75 5.21875 -3.25 L 5.21875 -2.671875 C 5.21875 -2.097656 5.179688 -1.632812 5.109375 -1.28125 C 5.046875 -0.9375 4.945312 -0.675781 4.8125 -0.5 C 4.675781 -0.332031 4.523438 -0.210938 4.359375 -0.140625 C 4.191406 -0.0664062 3.96875 -0.0195312 3.6875 0 L 0.234375 0 Z M 0.234375 -2.0625 "/></g></g></g><g fill="#6f42c1" fill-opacity="1"><g transform="translate(42.726385, 22.938159)"><g/></g></g><g fill="#6f42c1" fill-opacity="1"><g transform="translate(46.086599, 22.938159)"><g><path d="M 0.453125 -9.46875 L 4.328125 -9.46875 C 4.648438 -9.46875 4.90625 -9.460938 5.09375 -9.453125 C 5.28125 -9.453125 5.429688 -9.441406 5.546875 -9.421875 C 5.660156 -9.410156 5.75 -9.390625 5.8125 -9.359375 C 5.882812 -9.335938 5.957031 -9.300781 6.03125 -9.25 C 6.40625 -9 6.59375 -8.460938 6.59375 -7.640625 L 6.59375 -7.015625 C 6.59375 -6.785156 6.585938 -6.585938 6.578125 -6.421875 C 6.578125 -6.265625 6.566406 -6.128906 6.546875 -6.015625 C 6.535156 -5.898438 6.507812 -5.800781 6.46875 -5.71875 C 6.4375 -5.632812 6.394531 -5.550781 6.34375 -5.46875 C 6.226562 -5.269531 6.085938 -5.125 5.921875 -5.03125 C 5.753906 -4.945312 5.515625 -4.890625 5.203125 -4.859375 C 5.484375 -4.765625 5.710938 -4.671875 5.890625 -4.578125 C 6.078125 -4.492188 6.222656 -4.382812 6.328125 -4.25 C 6.429688 -4.113281 6.5 -3.945312 6.53125 -3.75 C 6.570312 -3.5625 6.59375 -3.328125 6.59375 -3.046875 L 6.59375 -1.59375 C 6.59375 -1.007812 6.660156 -0.476562 6.796875 0 L 4.25 0 C 4.175781 -0.25 4.125 -0.484375 4.09375 -0.703125 C 4.070312 -0.929688 4.0625 -1.226562 4.0625 -1.59375 L 4.0625 -2.859375 C 4.0625 -3.160156 4.003906 -3.375 3.890625 -3.5 C 3.773438 -3.632812 3.582031 -3.703125 3.3125 -3.703125 L 3 -3.703125 L 3 0 L 0.453125 0 Z M 3.34375 -5.765625 C 3.632812 -5.765625 3.828125 -5.816406 3.921875 -5.921875 C 4.023438 -6.023438 4.078125 -6.238281 4.078125 -6.5625 C 4.078125 -6.875 4.023438 -7.09375 3.921875 -7.21875 C 3.816406 -7.34375 3.625 -7.40625 3.34375 -7.40625 L 3 -7.40625 L 3 -5.765625 Z M 3.34375 -5.765625 "/></g></g></g><g fill="#6f42c1" fill-opacity="1"><g transform="translate(53.133129, 22.938159)"><g><path d="M 0.453125 -7.53125 C 0.453125 -7.945312 0.488281 -8.28125 0.5625 -8.53125 C 0.632812 -8.78125 0.742188 -8.972656 0.890625 -9.109375 C 1.046875 -9.242188 1.28125 -9.335938 1.59375 -9.390625 C 1.914062 -9.441406 2.382812 -9.46875 3 -9.46875 L 4.046875 -9.46875 C 4.671875 -9.46875 5.140625 -9.441406 5.453125 -9.390625 C 5.773438 -9.335938 6.007812 -9.242188 6.15625 -9.109375 C 6.3125 -8.972656 6.421875 -8.78125 6.484375 -8.53125 C 6.554688 -8.28125 6.59375 -7.945312 6.59375 -7.53125 L 6.59375 0 L 4.0625 0 L 4.0625 -2 L 3 -2 L 3 0 L 0.453125 0 Z M 4.0625 -4.09375 L 4.0625 -6.59375 C 4.0625 -7.1875 3.878906 -7.484375 3.515625 -7.484375 C 3.171875 -7.484375 3 -7.1875 3 -6.59375 L 3 -4.09375 Z M 4.0625 -4.09375 "/></g></g></g><g fill="#6f42c1" fill-opacity="1"><g transform="translate(60.193832, 22.938159)"><g><path d="M 0.453125 -9.46875 L 4.59375 -9.46875 L 4.59375 -7.40625 L 3 -7.40625 L 3 -5.765625 L 4.59375 -5.765625 L 4.59375 -3.703125 L 3 -3.703125 L 3 0 L 0.453125 0 Z M 0.453125 -9.46875 "/></g></g></g><g fill="#6f42c1" fill-opacity="1"><g transform="translate(65.156179, 22.938159)"><g><path d="M 0.453125 -9.46875 L 3 -9.46875 L 3 0 L 0.453125 0 Z M 0.453125 -9.46875 "/></g></g></g><g fill="#6f42c1" fill-opacity="1"><g transform="translate(68.601468, 22.938159)"><g><path d="M 5.015625 2.265625 C 4.703125 2.265625 4.476562 2.242188 4.34375 2.203125 C 4.21875 2.171875 4.117188 2.085938 4.046875 1.953125 C 3.992188 1.878906 3.960938 1.796875 3.953125 1.703125 C 3.941406 1.617188 3.9375 1.4375 3.9375 1.15625 L 3.9375 0 L 2.9375 0 C 2.425781 0 2 -0.0546875 1.65625 -0.171875 C 1.320312 -0.296875 1.0625 -0.507812 0.875 -0.8125 C 0.6875 -1.113281 0.554688 -1.53125 0.484375 -2.0625 C 0.410156 -2.59375 0.375 -3.265625 0.375 -4.078125 L 0.375 -5.78125 C 0.375 -6.46875 0.414062 -7.046875 0.5 -7.515625 C 0.582031 -7.992188 0.722656 -8.375 0.921875 -8.65625 C 1.117188 -8.945312 1.382812 -9.15625 1.71875 -9.28125 C 2.050781 -9.40625 2.457031 -9.46875 2.9375 -9.46875 L 4.015625 -9.46875 C 4.578125 -9.46875 5.03125 -9.382812 5.375 -9.21875 C 5.726562 -9.050781 5.984375 -8.785156 6.140625 -8.421875 C 6.210938 -8.265625 6.273438 -8.101562 6.328125 -7.9375 C 6.378906 -7.769531 6.414062 -7.578125 6.4375 -7.359375 C 6.46875 -7.148438 6.488281 -6.90625 6.5 -6.625 C 6.519531 -6.351562 6.53125 -6.019531 6.53125 -5.625 L 6.53125 -3.375 C 6.53125 -2.5 6.441406 -1.804688 6.265625 -1.296875 C 6.085938 -0.796875 5.816406 -0.4375 5.453125 -0.21875 L 5.453125 0.328125 C 5.453125 0.597656 5.585938 0.734375 5.859375 0.734375 L 6.53125 0.734375 L 6.53125 2.265625 Z M 3.984375 -6.75 C 3.984375 -7.25 3.8125 -7.5 3.46875 -7.5 C 3.289062 -7.5 3.148438 -7.429688 3.046875 -7.296875 C 2.953125 -7.160156 2.90625 -6.976562 2.90625 -6.75 L 2.90625 -2.6875 C 2.90625 -2.445312 2.953125 -2.257812 3.046875 -2.125 C 3.148438 -1.988281 3.289062 -1.921875 3.46875 -1.921875 C 3.8125 -1.921875 3.984375 -2.175781 3.984375 -2.6875 Z M 3.984375 -6.75 "/></g></g></g><g fill="#6f42c1" fill-opacity="1"><g transform="translate(75.477861, 22.938159)"><g><path d="M 2.609375 -10.578125 L 4.4375 -10.578125 L 2.390625 1.25 L 0.546875 1.25 Z M 2.609375 -10.578125 "/></g></g></g><g fill="#6f42c1" fill-opacity="1"><g transform="translate(80.667048, 22.938159)"><g><path d="M 0.546875 -3.296875 L 4.1875 -4.703125 L 0.546875 -6.1875 L 0.546875 -7.6875 L 6.515625 -5.265625 L 6.515625 -3.96875 L 0.546875 -1.78125 Z M 0.546875 -3.296875 "/></g></g></g><g clip-path="url(#cf1f54f32d)"><path fill="#6f42c1" d="M 35.636719 7.742188 C 35.421875 7.75 35.105469 7.820312 34.859375 7.921875 C 34.457031 8.085938 34.066406 8.398438 33.808594 8.769531 C 33.695312 8.933594 33.539062 9.1875 33.480469 9.308594 C 33.335938 9.621094 33.222656 10.0625 33.179688 10.496094 C 33.140625 10.882812 33.246094 11.398438 33.4375 11.761719 C 33.671875 12.203125 33.871094 12.386719 34.316406 12.5625 C 34.613281 12.679688 35.144531 12.800781 35.5 12.828125 C 35.679688 12.84375 35.726562 12.84375 35.921875 12.828125 C 36.132812 12.8125 36.300781 12.78125 36.519531 12.714844 C 36.9375 12.589844 37.203125 12.441406 37.484375 12.171875 C 37.660156 12.007812 37.835938 11.765625 37.957031 11.515625 C 38.050781 11.328125 38.167969 10.976562 38.214844 10.757812 C 38.246094 10.609375 38.25 10.5625 38.253906 10.3125 C 38.253906 10.066406 38.25 10.011719 38.222656 9.882812 C 38.15625 9.574219 38.035156 9.273438 37.894531 9.0625 C 37.773438 8.878906 37.5625 8.605469 37.464844 8.503906 C 37.238281 8.265625 36.839844 8.007812 36.546875 7.914062 C 36.386719 7.859375 35.863281 7.753906 35.722656 7.746094 C 35.695312 7.742188 35.667969 7.742188 35.636719 7.742188 Z M 35.636719 7.742188 " fill-opacity="1" fill-rule="nonzero"/></g></svg>